<svg width="40" height="40" viewBox="0 0 40 40" fill="none" xmlns="http://www.w3.org/2000/svg">
<path d="M18.2426 24.3137L14 20.071L15.4142 18.6568L18.2426 21.4853L23.8995 15.8284L25.3137 17.2426L18.2426 24.3137Z" fill="#0966D5"/>
<path fill-rule="evenodd" clip-rule="evenodd" d="M9 20C9 13.9249 13.9249 9 20 9C26.0751 9 31 13.9249 31 20C31 26.0751 26.0751 31 20 31C13.9249 31 9 26.0751 9 20ZM20 29C15.0294 29 11 24.9706 11 20C11 15.0294 15.0294 11 20 11C24.9706 11 29 15.0294 29 20C29 24.9706 24.9706 29 20 29Z" fill="#0966D5"/>
</svg>
