<svg width="42" height="42" viewBox="0 0 42 42" fill="none" xmlns="http://www.w3.org/2000/svg">
<circle cx="21" cy="21" r="21" fill="#F3F3F3"/>
<path fill-rule="evenodd" clip-rule="evenodd" d="M16 25H26C28.7614 25 31 27.2386 31 30C31 30.5523 30.5523 31 30 31C29.4872 31 29.0645 30.614 29.0067 30.1166L28.9949 29.8237C28.907 28.3072 27.6928 27.093 26.1763 27.0051L26 27H16C14.3431 27 13 28.3431 13 30C13 30.5523 12.5523 31 12 31C11.4477 31 11 30.5523 11 30C11 27.3112 13.1223 25.1182 15.7831 25.0046L16 25H26H16ZM21 11C24.3137 11 27 13.6863 27 17C27 20.3137 24.3137 23 21 23C17.6863 23 15 20.3137 15 17C15 13.6863 17.6863 11 21 11ZM21 13C18.7909 13 17 14.7909 17 17C17 19.2091 18.7909 21 21 21C23.2091 21 25 19.2091 25 17C25 14.7909 23.2091 13 21 13Z" fill="#1C48A3"/>
</svg>
