<svg width="32" height="32" viewBox="0 0 32 32" fill="none" xmlns="http://www.w3.org/2000/svg">
<path d="M31.7909 13.3804L31.6993 12.832H30.4575C29.9608 12.832 29.4641 12.832 28.9543 12.832C28.6275 11.4871 28.1046 10.2205 27.3725 9.04539L27.5817 8.83648C28.0261 8.39253 28.4575 7.94859 28.915 7.5177L29.3203 7.12598L28.9935 6.66898C27.9608 5.24574 26.719 4.0053 25.2941 2.9999L24.8366 2.67347L24.4444 3.07824C24.2092 3.31327 23.9739 3.5483 23.7386 3.78333C23.451 4.05753 23.1765 4.34479 22.902 4.63205C21.7124 3.9139 20.4314 3.39161 19.085 3.06518C19.085 2.97378 19.085 2.86933 19.085 2.77793V1.73335C19.085 1.45915 19.085 1.18494 19.085 0.884627V0.297052L18.5359 0.205651C16.8497 -0.0685504 15.098 -0.0685504 13.4248 0.205651L12.8497 0.310109L12.8758 0.884627C12.8889 1.15883 12.8889 1.43303 12.8758 1.69418V2.07283V2.42538C12.8758 2.62124 12.8758 2.8171 12.8758 3.01296C11.5294 3.32633 10.2614 3.86167 9.0719 4.57982C8.78431 4.29256 8.5098 4.0053 8.22222 3.71805C7.98693 3.48302 7.76471 3.26104 7.52941 3.02601L7.13726 2.62124L6.67974 2.94767C5.2549 3.96613 4.01307 5.20657 2.98039 6.62981L2.67974 7.11292L3.08497 7.50464C3.47712 7.89636 3.88235 8.28807 4.27451 8.67979L4.62745 9.03234C3.9085 10.2075 3.37255 11.4871 3.04575 12.832C2.53595 12.8189 2.02614 12.8189 1.54248 12.832H0.300654L0.20915 13.3804C0.0653595 14.2422 0 15.117 0 15.9918C0 16.8536 0.0653595 17.7285 0.20915 18.5902L0.287582 19.0864L0.797386 19.1386C0.849673 19.1386 0.888889 19.1386 0.96732 19.1517C1.38562 19.1517 1.80392 19.1517 2.22222 19.1517C2.49673 19.1517 2.77124 19.1517 3.04575 19.1517C3.37255 20.5096 3.9085 21.7892 4.64052 22.9775C4.36601 23.2517 4.07843 23.5259 3.80392 23.8131L3.22876 24.4007C3.17647 24.4529 3.12418 24.5052 3.08497 24.5443L2.71895 24.936L3.03268 25.38C4.05229 26.7902 5.28105 28.0045 6.69281 29.023L7.13726 29.3363L7.59477 28.8924C7.88235 28.5921 8.16994 28.3048 8.45752 28.0175C8.66667 27.8086 8.87582 27.5997 9.08497 27.3908C10.2745 28.1089 11.5556 28.6443 12.902 28.9577C12.902 29.3102 12.902 29.6628 12.902 30.0153C12.902 30.3678 12.902 30.7204 12.902 31.086V31.6997L13.451 31.7911C14.2876 31.9217 15.1503 32 16 32C16.8497 32 17.7124 31.9347 18.549 31.7911L19.098 31.6997V31.086C19.098 30.7465 19.098 30.407 19.098 30.0675C19.098 29.7019 19.098 29.3494 19.098 28.9707C20.4444 28.6443 21.7255 28.122 22.915 27.4039C23.1111 27.6128 23.3203 27.8086 23.5163 28.0045C23.817 28.3048 24.1176 28.5921 24.4183 28.9054L24.8105 29.3755L25.3072 29.023C26.719 28.0175 27.9608 26.7902 28.9673 25.38L29.281 24.936L28.915 24.5443C28.8627 24.4921 28.7974 24.4268 28.732 24.3615L28.2614 23.8915C27.9608 23.5911 27.6601 23.2908 27.3595 22.9905C28.0915 21.8023 28.6275 20.5227 28.9543 19.1647C29.2288 19.1647 29.5033 19.1647 29.7778 19.1647C30.1961 19.1647 30.6144 19.1647 31.0458 19.1647C31.1111 19.1647 31.1634 19.1647 31.2157 19.1517L31.7124 19.0995L31.7909 18.6033C31.9346 17.7676 32 16.8928 32 16.0049C32 15.1301 31.9346 14.2422 31.7909 13.3804ZM30.5752 17.8199C30.3137 17.8199 30.0392 17.8199 29.7778 17.8199C29.3595 17.8199 28.9412 17.8199 28.5098 17.8199C28.4444 17.8199 28.3922 17.8199 28.3399 17.8329L27.8693 17.8851L27.7778 18.3552C27.4641 19.909 26.8627 21.3714 25.9739 22.6902L25.7124 23.0689L25.9739 23.4345C26.0261 23.5128 26.0915 23.5781 26.1699 23.6564C26.549 24.022 26.9281 24.4007 27.3072 24.7794L27.5556 25.0274C26.8105 25.9806 25.9346 26.8424 24.9804 27.5867C24.7974 27.4039 24.6144 27.2211 24.4314 27.0383C24.1438 26.751 23.8693 26.4768 23.5817 26.1765C23.5033 26.0981 23.4248 26.0328 23.3464 25.9806L22.9804 25.7456L22.6275 25.9806C21.3072 26.8555 19.8562 27.443 18.3137 27.7564L17.9085 27.8347L17.8039 28.2395C17.7778 28.357 17.7647 28.4876 17.7647 28.6312C17.7778 29.1013 17.7778 29.5583 17.7778 30.0284C17.7778 30.1981 17.7778 30.3678 17.7778 30.5506C16.6013 30.6943 15.3856 30.6943 14.2092 30.5506C14.2092 30.3678 14.2092 30.172 14.2092 29.9892C14.2092 29.5452 14.2092 29.0882 14.2222 28.6443C14.2222 28.5007 14.2092 28.3701 14.183 28.2395L14.0784 27.8347L13.6732 27.7564C12.1307 27.4561 10.6797 26.8555 9.35948 25.9806L9.00654 25.7456L8.64052 25.9806C8.56209 26.0328 8.48366 26.0981 8.39216 26.1895C8.10458 26.4899 7.81699 26.7771 7.52941 27.0644C7.35948 27.2341 7.18954 27.4039 7.00654 27.5867C6.03922 26.8424 5.17647 25.9806 4.43137 25.0274L4.7451 24.7141C5.09804 24.3615 5.45098 23.9959 5.83007 23.6434C5.9085 23.565 5.96078 23.4997 6.01307 23.4345L6.27451 23.0689L6.01307 22.6902C5.12418 21.3714 4.5098 19.9221 4.20915 18.3552L4.11765 17.8851L3.63399 17.8329C3.5817 17.8329 3.51634 17.8199 3.46405 17.8199C3.20261 17.8199 2.94118 17.8199 2.67974 17.8199C2.26144 17.8199 1.84314 17.8199 1.39869 17.8199C1.32026 17.2062 1.28105 16.5925 1.28105 15.9918C1.28105 15.3781 1.32026 14.7514 1.39869 14.1508H1.51634C2.0915 14.1508 2.69281 14.1508 3.26797 14.1638C3.42484 14.1769 3.56863 14.1508 3.71242 14.1247L4.10458 14.0202L4.18301 13.6154C4.52288 12.0747 5.12418 10.6384 6 9.34571L6.23529 8.99317L6.01307 8.62756C5.92157 8.48393 5.80392 8.35336 5.64706 8.20973L5.20262 7.76579C4.94118 7.50464 4.67974 7.2435 4.4183 6.98235C5.17647 6.01612 6.05229 5.14128 7.03268 4.38396C7.12418 4.47536 7.22876 4.57982 7.32026 4.67122C7.66013 5.01071 8.01307 5.3502 8.35294 5.7158C8.45752 5.82026 8.60131 5.95083 8.78432 6.02917L9.11111 6.15975L9.39869 5.96389C10.719 5.10211 12.1569 4.51454 13.6863 4.21422L14.0654 4.13588L14.183 3.77027C14.2222 3.6397 14.2353 3.50913 14.2353 3.37856C14.2222 3.06518 14.2222 2.76487 14.2222 2.46455V2.11201V1.82475V1.73335C14.2222 1.62889 14.2222 1.53749 14.2222 1.43303C15.3987 1.2894 16.6013 1.2894 17.7908 1.43303V1.44609V2.50372C17.7908 2.79098 17.7908 3.0913 17.7908 3.3655C17.7908 3.49607 17.7908 3.61359 17.8301 3.7311L17.9346 4.13588L18.3399 4.21422C19.8693 4.51454 21.3072 5.10211 22.6275 5.96389L22.915 6.15975L23.2418 6.02917C23.4379 5.95083 23.5948 5.8072 23.6863 5.7158C24.0131 5.37631 24.3529 5.03683 24.6928 4.69734C24.7974 4.59288 24.902 4.48842 25.0065 4.39702C25.9739 5.15434 26.8497 6.01612 27.6078 6.99541C27.2941 7.30878 26.9804 7.62216 26.6667 7.93553L26.3791 8.23585C26.2222 8.39253 26.1046 8.51005 26.0131 8.65368L25.7908 9.01928L26.0261 9.37183C26.8889 10.6775 27.4902 12.1138 27.8039 13.6415L27.8824 14.0463L28.2876 14.1508C28.4183 14.1899 28.5621 14.203 28.732 14.1899C29.3072 14.1638 29.9085 14.1769 30.4837 14.1769H30.6013C30.6797 14.7906 30.719 15.4043 30.719 16.018C30.6928 16.6055 30.6536 17.2192 30.5752 17.8199Z" fill="#1c48a3"/>
<path d="M22.2989 20.9565H16.0846V19.8965L19.1632 16.5386C19.6075 16.0435 19.9228 15.6309 20.109 15.3008C20.2994 14.9665 20.3946 14.6322 20.3946 14.2979C20.3946 13.8577 20.2698 13.5023 20.0201 13.2314C19.7747 12.9606 19.4425 12.8252 19.0235 12.8252C18.5242 12.8252 18.137 12.9775 17.8619 13.2822C17.5868 13.5869 17.4493 14.0037 17.4493 14.5327H15.9068C15.9068 13.9699 16.0338 13.4642 16.2877 13.0156C16.5458 12.5628 16.9119 12.2116 17.3858 11.9619C17.864 11.7122 18.4141 11.5874 19.0362 11.5874C19.9334 11.5874 20.6401 11.8138 21.1563 12.2666C21.6768 12.7152 21.9371 13.3372 21.9371 14.1328C21.9371 14.5941 21.8059 15.0786 21.5435 15.5864C21.2854 16.09 20.8601 16.6634 20.2677 17.3066L18.0079 19.7251H22.2989V20.9565Z" fill="#1c48a3"/>
<path d="M6.95605 14.7079H8.96978L10.9835 19.4781L15.011 8.34766H22.2604" stroke="#1c48a3" stroke-width="1.4"/>
</svg>
