<svg width="30" height="30" viewBox="0 0 30 30" fill="none" xmlns="http://www.w3.org/2000/svg">
<path d="M16.821 14.3203H17.5729C17.931 14.3203 18.1963 14.2308 18.3688 14.0518C18.5413 13.8727 18.6276 13.6351 18.6276 13.3389C18.6276 13.0524 18.5413 12.8294 18.3688 12.6699C18.1995 12.5104 17.9652 12.4307 17.6657 12.4307C17.3955 12.4307 17.1693 12.5055 16.987 12.6553C16.8047 12.8018 16.7135 12.9938 16.7135 13.2314H15.3024C15.3024 12.8604 15.4017 12.5283 15.6003 12.2354C15.8021 11.9391 16.082 11.708 16.4401 11.542C16.8014 11.376 17.1986 11.293 17.6315 11.293C18.3835 11.293 18.9727 11.4736 19.3991 11.835C19.8255 12.193 20.0387 12.6878 20.0387 13.3193C20.0387 13.6449 19.9395 13.9443 19.7409 14.2178C19.5423 14.4912 19.2819 14.7012 18.9596 14.8477C19.36 14.9909 19.6579 15.2057 19.8532 15.4922C20.0518 15.7786 20.151 16.1172 20.151 16.5078C20.151 17.1393 19.9199 17.6455 19.4577 18.0264C18.9987 18.4072 18.39 18.5977 17.6315 18.5977C16.9219 18.5977 16.3408 18.4105 15.8883 18.0361C15.4391 17.6618 15.2145 17.167 15.2145 16.5518H16.6257C16.6257 16.8187 16.7249 17.0368 16.9235 17.2061C17.1253 17.3753 17.3727 17.46 17.6657 17.46C18.001 17.46 18.263 17.3721 18.4518 17.1963C18.6439 17.0173 18.7399 16.7812 18.7399 16.4883C18.7399 15.7786 18.3493 15.4238 17.568 15.4238H16.821V14.3203Z" fill="#48494B"/>
<path d="M6.25 14.1364H7.9554L9.6608 18.1762L13.0716 8.75H19.211" stroke="#48494B" stroke-width="1.4"/>
<path d="M2.70962 7.90414L15 0.808291L27.2904 7.90414V22.0959L15 29.1917L2.70962 22.0959V7.90414Z" stroke="#48494B" stroke-width="1.4"/>
</svg>
