<svg width="27" height="26" viewBox="0 0 27 26" fill="none" xmlns="http://www.w3.org/2000/svg">
<g clip-path="url(#clip0)">
<path d="M22.3594 14.2188C23.0584 14.2188 23.625 13.6731 23.625 13C23.625 12.3269 23.0584 11.7812 22.3594 11.7812C21.6604 11.7812 21.0938 12.3269 21.0938 13C21.0938 13.6731 21.6604 14.2188 22.3594 14.2188Z" fill="#1c48a3"/>
<path d="M21.5156 13.4062H18.9844C18.7523 13.4062 18.5625 13.2234 18.5625 13C18.5625 12.7766 18.7523 12.5938 18.9844 12.5938H21.5156C21.7477 12.5938 21.9375 12.7766 21.9375 13C21.9375 13.2234 21.7477 13.4062 21.5156 13.4062Z" fill="#1c48a3"/>
<path d="M22.3594 4.875C23.0584 4.875 23.625 4.32935 23.625 3.65625C23.625 2.98315 23.0584 2.4375 22.3594 2.4375C21.6604 2.4375 21.0938 2.98315 21.0938 3.65625C21.0938 4.32935 21.6604 4.875 22.3594 4.875Z" fill="#1c48a3"/>
<path d="M21.5156 4.0625H18.9844C18.7523 4.0625 18.5625 3.87969 18.5625 3.65625C18.5625 3.43281 18.7523 3.25 18.9844 3.25H21.5156C21.7477 3.25 21.9375 3.43281 21.9375 3.65625C21.9375 3.87969 21.7477 4.0625 21.5156 4.0625Z" fill="#1c48a3"/>
<path d="M22.3594 23.5625C23.0584 23.5625 23.625 23.0168 23.625 22.3438C23.625 21.6707 23.0584 21.125 22.3594 21.125C21.6604 21.125 21.0938 21.6707 21.0938 22.3438C21.0938 23.0168 21.6604 23.5625 22.3594 23.5625Z" fill="#1c48a3"/>
<path d="M21.5156 22.75H18.9844C18.7523 22.75 18.5625 22.5672 18.5625 22.3438C18.5625 22.1203 18.7523 21.9375 18.9844 21.9375H21.5156C21.7477 21.9375 21.9375 22.1203 21.9375 22.3438C21.9375 22.5672 21.7477 22.75 21.5156 22.75Z" fill="#1c48a3"/>
<path d="M4.64062 14.2188C5.33961 14.2188 5.90625 13.6731 5.90625 13C5.90625 12.3269 5.33961 11.7812 4.64062 11.7812C3.94164 11.7812 3.375 12.3269 3.375 13C3.375 13.6731 3.94164 14.2188 4.64062 14.2188Z" fill="#1c48a3"/>
<path d="M8.4375 13.4062H5.0625C4.83047 13.4062 4.64062 13.2234 4.64062 13C4.64062 12.7766 4.83047 12.5938 5.0625 12.5938H8.4375C8.66953 12.5938 8.85938 12.7766 8.85938 13C8.85938 13.2234 8.66953 13.4062 8.4375 13.4062Z" fill="#1c48a3"/>
<path d="M4.64062 4.875C5.33961 4.875 5.90625 4.32935 5.90625 3.65625C5.90625 2.98315 5.33961 2.4375 4.64062 2.4375C3.94164 2.4375 3.375 2.98315 3.375 3.65625C3.375 4.32935 3.94164 4.875 4.64062 4.875Z" fill="#1c48a3"/>
<path d="M8.01562 4.0625H5.0625C4.83047 4.0625 4.64062 3.87969 4.64062 3.65625C4.64062 3.43281 4.83047 3.25 5.0625 3.25H8.01562C8.24766 3.25 8.4375 3.43281 8.4375 3.65625C8.4375 3.87969 8.24766 4.0625 8.01562 4.0625Z" fill="#1c48a3"/>
<path d="M4.64062 23.5625C5.33961 23.5625 5.90625 23.0168 5.90625 22.3438C5.90625 21.6707 5.33961 21.125 4.64062 21.125C3.94164 21.125 3.375 21.6707 3.375 22.3438C3.375 23.0168 3.94164 23.5625 4.64062 23.5625Z" fill="#1c48a3"/>
<path d="M8.01562 22.75H5.0625C4.83047 22.75 4.64062 22.5672 4.64062 22.3438C4.64062 22.1203 4.83047 21.9375 5.0625 21.9375H8.01562C8.24766 21.9375 8.4375 22.1203 8.4375 22.3438C8.4375 22.5672 8.24766 22.75 8.01562 22.75Z" fill="#1c48a3"/>
<path d="M18.1406 12.1875H8.85938C8.62734 12.1875 8.4375 12.0047 8.4375 11.7812C8.4375 11.5578 8.62734 11.375 8.85938 11.375H18.1406C18.3727 11.375 18.5625 11.5578 18.5625 11.7812C18.5625 12.0047 18.3727 12.1875 18.1406 12.1875Z" fill="#1c48a3"/>
<path d="M18.1406 14.625H8.85938C8.62734 14.625 8.4375 14.4422 8.4375 14.2188C8.4375 13.9953 8.62734 13.8125 8.85938 13.8125H18.1406C18.3727 13.8125 18.5625 13.9953 18.5625 14.2188C18.5625 14.4422 18.3727 14.625 18.1406 14.625Z" fill="#1c48a3"/>
<path d="M18.1406 21.5312H8.85938C8.62734 21.5312 8.4375 21.3484 8.4375 21.125C8.4375 20.9016 8.62734 20.7188 8.85938 20.7188H18.1406C18.3727 20.7188 18.5625 20.9016 18.5625 21.125C18.5625 21.3484 18.3727 21.5312 18.1406 21.5312Z" fill="#1c48a3"/>
<path d="M18.1406 23.9688H8.85938C8.62734 23.9688 8.4375 23.7859 8.4375 23.5625C8.4375 23.3391 8.62734 23.1562 8.85938 23.1562H18.1406C18.3727 23.1562 18.5625 23.3391 18.5625 23.5625C18.5625 23.7859 18.3727 23.9688 18.1406 23.9688Z" fill="#1c48a3"/>
<path d="M18.1406 5.28125H8.85938C8.62734 5.28125 8.4375 5.09844 8.4375 4.875C8.4375 4.65156 8.62734 4.46875 8.85938 4.46875H18.1406C18.3727 4.46875 18.5625 4.65156 18.5625 4.875C18.5625 5.09844 18.3727 5.28125 18.1406 5.28125Z" fill="#1c48a3"/>
<path d="M18.1406 2.84375H8.85938C8.62734 2.84375 8.4375 2.66094 8.4375 2.4375C8.4375 2.21406 8.62734 2.03125 8.85938 2.03125H18.1406C18.3727 2.03125 18.5625 2.21406 18.5625 2.4375C18.5625 2.66094 18.3727 2.84375 18.1406 2.84375Z" fill="#1c48a3"/>
<path d="M9.28125 3.25V1.625C9.28125 1.17812 8.90156 0.8125 8.4375 0.8125C7.97344 0.8125 7.59375 1.17812 7.59375 1.625V3.25C7.59375 5.005 8.42063 6.57312 9.72 7.61719C10.2516 7.27187 10.838 6.99563 11.4623 6.80469C10.163 6.11406 9.28125 4.78156 9.28125 3.25Z" fill="#1c48a3"/>
<path d="M17.2795 18.3828C16.7479 18.7281 16.1615 19.0044 15.5371 19.1953C16.8365 19.8859 17.7182 21.2184 17.7182 22.75V24.375C17.7182 24.8219 18.0979 25.1875 18.562 25.1875C19.026 25.1875 19.4057 24.8219 19.4057 24.375V22.75C19.4057 20.995 18.5788 19.4269 17.2795 18.3828Z" fill="#1c48a3"/>
<path d="M17.7188 13C17.7188 15.2425 15.8287 17.0625 13.5 17.0625C10.2389 17.0625 7.59375 19.6097 7.59375 22.75V24.375C7.59375 24.8219 7.97344 25.1875 8.4375 25.1875C8.90156 25.1875 9.28125 24.8219 9.28125 24.375V22.75C9.28125 20.5075 11.1713 18.6875 13.5 18.6875C16.7611 18.6875 19.4062 16.1403 19.4062 13C19.4062 11.245 18.5794 9.67687 17.28 8.63281C16.7484 8.97813 16.162 9.25437 15.5377 9.44531C16.837 10.1359 17.7188 11.4684 17.7188 13Z" fill="#1c48a3"/>
<path d="M18.5625 0.8125C18.0984 0.8125 17.7188 1.17812 17.7188 1.625V3.25C17.7188 5.4925 15.8287 7.3125 13.5 7.3125C10.2389 7.3125 7.59375 9.85969 7.59375 13C7.59375 14.755 8.42063 16.3231 9.72 17.3672C10.2516 17.0219 10.838 16.7456 11.4623 16.5547C10.163 15.8641 9.28125 14.5316 9.28125 13C9.28125 10.7575 11.1713 8.9375 13.5 8.9375C16.7611 8.9375 19.4062 6.39031 19.4062 3.25V1.625C19.4062 1.17812 19.0266 0.8125 18.5625 0.8125Z" fill="#1c48a3"/>
</g>
<defs>
<clipPath id="clip0">
<rect width="27" height="26" fill="white"/>
</clipPath>
</defs>
</svg>
