<svg width="60" height="60" viewBox="0 0 40 40" fill="none" xmlns="http://www.w3.org/2000/svg">
<path fill-rule="evenodd" clip-rule="evenodd" d="M24.4196 23.0081C26.8633 19.8696 26.6426 15.3289 23.7574 12.4437C20.6332 9.31954 15.5679 9.31954 12.4437 12.4437C9.31954 15.5679 9.31954 20.6332 12.4437 23.7574C15.3289 26.6426 19.8696 26.8633 23.0081 24.4196C23.0216 24.4349 23.0357 24.4499 23.0503 24.4645L27.293 28.7072C27.6835 29.0977 28.3167 29.0977 28.7072 28.7072C29.0977 28.3167 29.0977 27.6835 28.7072 27.293L24.4645 23.0503C24.4499 23.0357 24.4349 23.0216 24.4196 23.0081ZM22.3432 13.8579C24.6864 16.2011 24.6864 20.0001 22.3432 22.3432C20.0001 24.6864 16.2011 24.6864 13.8579 22.3432C11.5148 20.0001 11.5148 16.2011 13.8579 13.8579C16.2011 11.5148 20.0001 11.5148 22.3432 13.8579Z" fill="#0966D5"/>
</svg>
