<svg version="1.1" xmlns="http://www.w3.org/2000/svg" xmlns:xlink="http://www.w3.org/1999/xlink">

    <symbol viewBox="0 0 24 24" id="header-cabinet">
        <path fill-rule="evenodd" clip-rule="evenodd" d="M7 16H17C19.7614 16 22 18.2386 22 21C22 21.5523 21.5523 22 21 22C20.4872 22 20.0645 21.614 20.0067 21.1166L19.9949 20.8237C19.907 19.3072 18.6928 18.093 17.1763 18.0051L17 18H7C5.34315 18 4 19.3431 4 21C4 21.5523 3.55228 22 3 22C2.44772 22 2 21.5523 2 21C2 18.3112 4.12231 16.1182 6.78311 16.0046L7 16H17H7ZM12 2C15.3137 2 18 4.68629 18 8C18 11.3137 15.3137 14 12 14C8.68629 14 6 11.3137 6 8C6 4.68629 8.68629 2 12 2ZM12 4C9.79086 4 8 5.79086 8 8C8 10.2091 9.79086 12 12 12C14.2091 12 16 10.2091 16 8C16 5.79086 14.2091 4 12 4Z" />
    </symbol>

    <symbol viewBox="0 0 24 24" id="header-search">
        <path fill-rule="evenodd" clip-rule="evenodd" d="M11 2C15.9706 2 20 6.02944 20 11C20 13.1248 19.2637 15.0776 18.0323 16.6172L21.7071 20.2929C22.0976 20.6834 22.0976 21.3166 21.7071 21.7071C21.3466 22.0676 20.7794 22.0953 20.3871 21.7903L20.2929 21.7071L16.6172 18.0323C15.0776 19.2637 13.1248 20 11 20C6.02944 20 2 15.9706 2 11C2 6.02944 6.02944 2 11 2ZM11 4C7.13401 4 4 7.13401 4 11C4 14.866 7.13401 18 11 18C14.866 18 18 14.866 18 11C18 7.13401 14.866 4 11 4Z" />
    </symbol>

    <symbol viewBox="0 0 15 9" id="main-header-btn">
        <path d="M14.3889 4.88891C14.6037 4.67412 14.6037 4.32588 14.3889 4.11109L10.8887 0.610913C10.6739 0.396124 10.3257 0.396124 10.1109 0.610913C9.89612 0.825701 9.89612 1.17394 10.1109 1.38873L13.2222 4.5L10.1109 7.61127C9.89612 7.82606 9.89612 8.1743 10.1109 8.38909C10.3257 8.60388 10.6739 8.60388 10.8887 8.38909L14.3889 4.88891ZM0 5.05L14 5.05V3.95L0 3.95L0 5.05Z" />
    </symbol>

    <symbol viewBox="0 0 26 16" id="main-header-btn-mobile">
        <path d="M25.7071 8.70711C26.0976 8.31658 26.0976 7.68342 25.7071 7.2929L19.3431 0.928934C18.9526 0.538409 18.3195 0.538409 17.9289 0.928934C17.5384 1.31946 17.5384 1.95262 17.9289 2.34315L23.5858 8L17.9289 13.6569C17.5384 14.0474 17.5384 14.6805 17.9289 15.0711C18.3195 15.4616 18.9526 15.4616 19.3431 15.0711L25.7071 8.70711ZM-8.74228e-08 9L25 9L25 7L8.74228e-08 7L-8.74228e-08 9Z" />
    </symbol>

    <symbol viewBox="0 0 15 8" id="main-faq-arrow">
        <path d="M1 1L7.5 7L14 0.999998" stroke-width="1.4" />
    </symbol>

    <symbol viewBox="0 0 36 36" id="window-close">
        <path d="M26.6748 8.8916L8.89176 26.6746" stroke-width="2" stroke-linecap="round" stroke-linejoin="round" />
        <path d="M8.8916 8.8916L26.6746 26.6746" stroke-width="2" stroke-linecap="round" stroke-linejoin="round" />
    </symbol>

    <symbol viewBox="0 0 30 30" id="window-info-arrow">
        <path d="M7.9289 9.69678L6.16113 11.4645L14.9999 20.3034L23.8388 11.4646L22.071 9.69681L15 16.7679L7.9289 9.69678Z" />
    </symbol>

    <symbol viewBox="0 0 16 18" id="window-info-presentation">
        <path d="M3.55556 14.4H12.4444V12.6H3.55556V14.4Z" />
        <path d="M12.4444 10.8H3.55556V9H12.4444V10.8Z" />
        <path d="M3.55556 7.2H7.11111V5.4H3.55556V7.2Z" />
        <path fill-rule="evenodd" clip-rule="evenodd" d="M2.66667 0C1.19391 0 0 1.20883 0 2.7V15.3C0 16.7912 1.19391 18 2.66667 18H13.3333C14.8061 18 16 16.7912 16 15.3V6.3C16 2.82061 13.2142 0 9.77778 0H2.66667ZM2.66667 1.8H8.88889V6.3H14.2222V15.3C14.2222 15.7971 13.8243 16.2 13.3333 16.2H2.66667C2.17575 16.2 1.77778 15.7971 1.77778 15.3V2.7C1.77778 2.20294 2.17575 1.8 2.66667 1.8ZM10.6667 1.89002C12.099 2.18439 13.2811 3.17615 13.8524 4.5H10.6667V1.89002Z" />
    </symbol>

    <symbol viewBox="0 0 24 24" id="window-info-icon">
        <path d="M12 22C17.5228 22 22 17.5228 22 12C22 6.47715 17.5228 2 12 2C6.47715 2 2 6.47715 2 12C2 17.5228 6.47715 22 12 22Z" stroke-width="2" stroke-linecap="round" stroke-linejoin="round" />
        <path d="M12 8V12" stroke-width="2" stroke-linecap="round" stroke-linejoin="round" />
        <path d="M12 16H12.01" stroke-width="2" stroke-linecap="round" stroke-linejoin="round" />
    </symbol>

    <symbol viewBox="0 0 9 14" id="pager-prev">
        <path d="M8 1L2 7L8 13" stroke-width="2" />
    </symbol>

    <symbol viewBox="0 0 9 14" id="pager-next">
        <path d="M1 13L7 7L0.999999 1" stroke-width="2" />
    </symbol>

    <symbol viewBox="0 0 25 26" id="file-icon">
        <g clip-path="url(#clip0)">
            <path d="M7.8125 1.28125L3.125 5.96875V24.7188H21.875V1.28125H7.8125Z" stroke="#1C48A3" stroke-width="2" stroke-linejoin="round" />
            <path d="M7.8125 1.28125V5.96875H3.125" stroke="#1C48A3" stroke-width="2" stroke-linejoin="round" />
            <path d="M6.25 12.2188H14.0625" stroke="#1C48A3" stroke-width="2" stroke-linejoin="round" />
            <path d="M6.25 16.125H18.75" stroke="#1C48A3" stroke-width="2" stroke-linejoin="round" />
            <path d="M6.25 20.0312H14.0625" stroke="#1C48A3" stroke-width="2" stroke-linejoin="round" />
        </g>
        <defs>
            <clipPath id="clip0">
                <rect width="25" height="25" fill="white" transform="translate(0 0.5)" />
            </clipPath>
        </defs>
    </symbol>

    <symbol viewBox="0 0 15 10" id="page-back-link">
        <path d="M0.611092 4.61109C0.396303 4.82588 0.396303 5.17412 0.611092 5.38891L4.11127 8.88909C4.32606 9.10388 4.6743 9.10388 4.88909 8.88909C5.10388 8.6743 5.10388 8.32606 4.88909 8.11127L1.77782 5L4.88909 1.88873C5.10388 1.67394 5.10388 1.3257 4.88909 1.11091C4.6743 0.896125 4.32606 0.896125 4.11127 1.11091L0.611092 4.61109ZM15 4.45L1 4.45L1 5.55L15 5.55L15 4.45Z" />
    </symbol>

    <symbol viewBox="0 0 30 30" id="icon-fb">
        <path d="M30 15.0914C30 6.75575 23.2852 0 15 0C6.71484 0 0 6.75575 0 15.0914C0 22.6253 5.48438 28.8681 12.6562 30V19.4537H8.84766V15.0914H12.6562V11.7666C12.6562 7.98487 14.8945 5.89507 18.3223 5.89507C19.9629 5.89507 21.6797 6.18982 21.6797 6.18982V9.90371H19.7871C17.9238 9.90371 17.3438 11.068 17.3438 12.2617V15.0914H21.5039L20.8389 19.4537H17.3438V30C24.5156 28.8681 30 22.6253 30 15.0914Z" />
    </symbol>

    <symbol viewBox="0 0 30 30" id="icon-twitter">
        <path fill-rule="evenodd" clip-rule="evenodd" d="M15 0C6.71573 0 0 6.71573 0 15C0 23.2843 6.71573 30 15 30C23.2843 30 30 23.2843 30 15C30 6.71573 23.2843 0 15 0ZM14.5822 12.7112L14.5508 12.1922C14.4563 10.847 15.2852 9.61822 16.5967 9.14155C17.0794 8.97207 17.8978 8.95089 18.4329 9.09918C18.6427 9.16274 19.0414 9.37459 19.3247 9.56526L19.8388 9.91481L20.4054 9.73474C20.7202 9.6394 21.1398 9.48052 21.3287 9.37459C21.5071 9.27926 21.6645 9.2263 21.6645 9.25807C21.6645 9.43815 21.2762 10.0525 20.951 10.3915C20.5103 10.8681 20.6362 10.9105 21.5281 10.5927C22.0632 10.4127 22.0737 10.4127 21.9687 10.6139C21.9058 10.7198 21.5805 11.0906 21.2343 11.4295C20.6467 12.0121 20.6152 12.0757 20.6152 12.5629C20.6152 13.315 20.2585 14.8827 19.9018 15.7407C19.2408 17.3508 17.8243 19.0138 16.4079 19.8506C14.4144 21.0264 11.7598 21.323 9.52499 20.6344C8.78005 20.4014 7.5 19.8082 7.5 19.7023C7.5 19.6705 7.88821 19.6282 8.36036 19.6176C9.34663 19.5964 10.3329 19.321 11.1723 18.8337L11.7388 18.4948L11.0883 18.2723C10.165 17.9545 9.33613 17.2237 9.12629 16.5351C9.06334 16.3127 9.08432 16.3021 9.67188 16.3021L10.2804 16.2915L9.76631 16.0479C9.15777 15.7407 8.60168 15.2217 8.32888 14.692C8.12953 14.3107 7.87772 13.3468 7.95116 13.2726C7.97215 13.2409 8.19248 13.3044 8.4443 13.3892C9.16826 13.654 9.26269 13.5904 8.843 13.1455C8.05609 12.3405 7.81477 11.1435 8.19248 10.0101L8.37085 9.5017L9.06334 10.1902C10.4798 11.5778 12.148 12.4041 14.0576 12.6477L14.5822 12.7112Z" />
    </symbol>

    <symbol viewBox="0 0 30 30" id="icon-vk">
        <path fill-rule="evenodd" clip-rule="evenodd" d="M19.5423 0H10.3327C1.92762 0 -0.0625 1.99012 -0.0625 10.3952V19.6048C-0.0625 28.0099 1.92762 30 10.3327 30H19.5423C27.9474 30 29.9375 28.0099 29.9375 19.6048V10.3952C29.9375 1.99012 27.9474 0 19.5423 0ZM23.8404 9.52717C24.4967 9.52717 24.6449 9.86591 24.4967 10.3317C24.2654 11.3991 22.3447 14.2307 21.7498 15.1078C21.6368 15.2744 21.5716 15.3705 21.575 15.3705C21.3421 15.7516 21.2574 15.921 21.575 16.3444C21.6898 16.5009 21.9332 16.7398 22.2115 17.0128C22.4976 17.2936 22.8206 17.6105 23.0782 17.9111C24.0097 18.9697 24.7296 19.8589 24.9201 20.4728C25.0895 21.0868 24.7931 21.4044 24.1579 21.4044H21.9773C21.3994 21.4044 21.1015 21.0725 20.4666 20.3652C20.1944 20.0619 19.8603 19.6896 19.4155 19.2449C18.1241 17.9958 17.5524 17.8264 17.2349 17.8264C16.7903 17.8264 16.6632 17.9322 16.6632 18.5674V20.5363C16.6632 21.0656 16.4939 21.3832 15.0965 21.3832C12.7888 21.3832 10.2271 19.9859 8.42752 17.3818C5.71757 13.5709 4.97656 10.6916 4.97656 10.12C4.97656 9.8024 5.08242 9.506 5.71756 9.506H7.9194C8.46986 9.506 8.68157 9.73888 8.89329 10.3529C9.97303 13.4651 11.7726 16.1962 12.5136 16.1962C12.7888 16.1962 12.9159 16.0692 12.9159 15.3705V12.1524C12.8636 11.2377 12.5452 10.8392 12.3091 10.5437C12.1626 10.3604 12.0478 10.2167 12.0478 10.0141C12.0478 9.76005 12.2596 9.506 12.5983 9.506H16.0281C16.4939 9.506 16.6632 9.76005 16.6632 10.3105V14.6507C16.6632 15.1164 16.8538 15.2858 17.002 15.2858C17.2772 15.2858 17.5101 15.1164 18.0182 14.6083C19.5849 12.8511 20.707 10.1411 20.707 10.1411C20.8552 9.82357 21.1092 9.52717 21.6597 9.52717H23.8404Z" />
    </symbol>

    <symbol viewBox="0 0 8 12" id="gallery-prev">
        <path d="M7 1L2 6L7 11" stroke-width="2" />
    </symbol>

    <symbol viewBox="0 0 8 12" id="gallery-next">
        <path d="M1 11L6 6L0.999999 1" stroke-width="2" />
    </symbol>

    <symbol viewBox="0 0 32 32" id="up-link">
        <path d="M23.5421 21.6569L25.4277 19.7713L15.9997 10.3433L6.57158 19.7714L8.45719 21.657L15.9997 14.1145L23.5421 21.6569Z" />
    </symbol>

    <symbol viewBox="0 0 19 11" id="faq-group-title">
        <path d="M1 1L9.5 9L18 1" stroke-width="2" />
    </symbol>

    <symbol viewBox="0 0 48 48" id="filter-icon">
        <rect width="48" height="48" fill="#1C48A3" />
        <path fill-rule="evenodd" clip-rule="evenodd" d="M20.9999 26.2907L14.1563 15.5364C13.7326 14.8707 14.2108 13.9995 14.9999 13.9995H32.9999C33.789 13.9995 34.2672 14.8707 33.8436 15.5364L26.9999 26.2907V30.9995C26.9999 31.3783 26.7859 31.7245 26.4471 31.8939L22.4471 33.8939C21.7822 34.2264 20.9999 33.7429 20.9999 32.9995V26.2907ZM16.8216 15.9995L22.8436 25.4626C22.9457 25.6231 22.9999 25.8093 22.9999 25.9995V31.3815L24.9999 30.3815V25.9995C24.9999 25.8093 25.0541 25.6231 25.1563 25.4626L31.1782 15.9995H16.8216Z" fill="white" />
    </symbol>

    <symbol viewBox="0 0 48 48" id="filter-close-icon">
        <rect width="48" height="48" fill="#1C48A3" />
        <path fill-rule="evenodd" clip-rule="evenodd" d="M34.0005 15.1109C34.0005 15.3953 33.8916 15.6798 33.6749 15.8965L24.786 24.7853C24.3516 25.2198 23.6494 25.2198 23.2149 24.7853L14.3261 15.8965C13.8916 15.462 13.8916 14.7598 14.3261 14.3253C14.7605 13.8909 15.4627 13.8909 15.8972 14.3253L24.0005 22.4287L32.1038 14.3253C32.5383 13.8909 33.2405 13.8909 33.6749 14.3253C33.8916 14.542 34.0005 14.8265 34.0005 15.1109Z" fill="white" />
        <path fill-rule="evenodd" clip-rule="evenodd" d="M13.9995 32.8886C13.9995 32.6042 14.1084 32.3197 14.3251 32.1031L23.214 23.2142C23.6484 22.7797 24.3506 22.7797 24.7851 23.2142L33.6739 32.1031C34.1084 32.5375 34.1084 33.2397 33.6739 33.6742C33.2395 34.1086 32.5373 34.1086 32.1028 33.6742L23.9995 25.5709L15.8962 33.6742C15.4617 34.1086 14.7595 34.1086 14.3251 33.6742C14.1084 33.4575 13.9995 33.1731 13.9995 32.8886Z" fill="white" />
    </symbol>

    <symbol viewBox="0 0 19 19" id="nav-arrow">
        <path d="M5.02193 6.14136L3.90234 7.26094L9.50026 12.8589L15.0982 7.26097L13.9786 6.14138L9.50028 10.6197L5.02193 6.14136Z" />
    </symbol>

    <symbol viewBox="0 0 36 36" id="search-window-close">
        <path d="M26.6748 8.8916L8.89176 26.6746" stroke-width="2" stroke-linecap="round" stroke-linejoin="round" />
        <path d="M8.8916 8.8916L26.6746 26.6746" stroke-width="2" stroke-linecap="round" stroke-linejoin="round" />
    </symbol>

    <symbol viewBox="0 0 28 29" id="header-mobile-feedback">
        <path d="M24.5 19.1667C24.5 19.7856 24.2542 20.3791 23.8166 20.8167C23.379 21.2542 22.7855 21.5001 22.1667 21.5001H8.16667L3.5 26.1667V7.50008C3.5 6.88124 3.74583 6.28775 4.18342 5.85017C4.621 5.41258 5.21449 5.16675 5.83333 5.16675H22.1667C22.7855 5.16675 23.379 5.41258 23.8166 5.85017C24.2542 6.28775 24.5 6.88124 24.5 7.50008V19.1667Z" stroke-width="2" stroke-linecap="round" stroke-linejoin="round"/>
    </symbol>

    <symbol viewBox="0 0 18 18" id="main-map-filter-link">
        <path fill-rule="evenodd" clip-rule="evenodd" d="M9 5.4C7.82437 5.4 6.82424 4.64863 6.45361 3.59992L0.899999 3.6C0.402944 3.6 -1.39748e-07 3.19706 -1.18021e-07 2.7C-9.62937e-08 2.20294 0.402944 1.8 0.9 1.8L6.45392 1.79919C6.8248 0.750939 7.82471 -4.44776e-07 9 -3.93402e-07C10.1753 -3.42029e-07 11.1752 0.750939 11.5461 1.79919L17.1 1.8C17.5971 1.8 18 2.20294 18 2.7C18 3.19706 17.5971 3.6 17.1 3.6L11.5464 3.59992C11.1758 4.64863 10.1756 5.4 9 5.4ZM9 3.6C9.49705 3.6 9.9 3.19706 9.9 2.7C9.9 2.20294 9.49705 1.8 9 1.8C8.50294 1.8 8.1 2.20294 8.1 2.7C8.1 3.19706 8.50294 3.6 9 3.6ZM2.7 11.7C1.20883 11.7 -4.58584e-07 10.4912 -3.93402e-07 9C-3.28221e-07 7.50883 1.20883 6.3 2.7 6.3C3.87529 6.3 4.8752 7.05094 5.24608 8.09919L17.1 8.1C17.5971 8.1 18 8.50294 18 9C18 9.49706 17.5971 9.9 17.1 9.9L5.24639 9.89992C4.87576 10.9486 3.87563 11.7 2.7 11.7ZM2.7 9.9C3.19706 9.9 3.6 9.49706 3.6 9C3.6 8.50294 3.19706 8.1 2.7 8.1C2.20294 8.1 1.8 8.50294 1.8 9C1.8 9.49706 2.20294 9.9 2.7 9.9ZM15.3 18C14.1194 18 13.1157 17.2422 12.7489 16.1865C12.7008 16.1958 12.6509 16.2 12.6 16.2L0.899999 16.2C0.402944 16.2 -6.90511e-07 15.7971 -6.68784e-07 15.3C-6.47057e-07 14.8029 0.402944 14.4 0.899999 14.4L12.6 14.4C12.6509 14.4 12.7008 14.4042 12.7494 14.4123C13.1157 13.3578 14.1194 12.6 15.3 12.6C16.7912 12.6 18 13.8088 18 15.3C18 16.7912 16.7912 18 15.3 18ZM15.3 16.2C15.7971 16.2 16.2 15.7971 16.2 15.3C16.2 14.8029 15.7971 14.4 15.3 14.4C14.8029 14.4 14.4 14.8029 14.4 15.3C14.4 15.7971 14.8029 16.2 15.3 16.2Z" />
    </symbol>

    <symbol viewBox="0 0 20 20" id="header-cabinet-exit">
        <path d="M7.5 17.5H4.16667C3.72464 17.5 3.30072 17.3244 2.98816 17.0118C2.67559 16.6993 2.5 16.2754 2.5 15.8333V4.16667C2.5 3.72464 2.67559 3.30072 2.98816 2.98816C3.30072 2.67559 3.72464 2.5 4.16667 2.5H7.5" stroke-width="1.4" stroke-linecap="round" stroke-linejoin="round" />
        <path d="M13.333 14.1666L17.4997 9.99992L13.333 5.83325" stroke-width="1.4" stroke-linecap="round" stroke-linejoin="round" />
        <path d="M17.5 10H7.5" stroke-width="1.4" stroke-linecap="round" stroke-linejoin="round" />
    </symbol>

</svg>