<svg version="1.1" xmlns="http://www.w3.org/2000/svg" xmlns:xlink="http://www.w3.org/1999/xlink">

    <symbol viewBox="0 0 24 24" id="header-cabinet">
        <path fill-rule="evenodd" clip-rule="evenodd" d="M7 16H17C19.7614 16 22 18.2386 22 21C22 21.5523 21.5523 22 21 22C20.4872 22 20.0645 21.614 20.0067 21.1166L19.9949 20.8237C19.907 19.3072 18.6928 18.093 17.1763 18.0051L17 18H7C5.34315 18 4 19.3431 4 21C4 21.5523 3.55228 22 3 22C2.44772 22 2 21.5523 2 21C2 18.3112 4.12231 16.1182 6.78311 16.0046L7 16H17H7ZM12 2C15.3137 2 18 4.68629 18 8C18 11.3137 15.3137 14 12 14C8.68629 14 6 11.3137 6 8C6 4.68629 8.68629 2 12 2ZM12 4C9.79086 4 8 5.79086 8 8C8 10.2091 9.79086 12 12 12C14.2091 12 16 10.2091 16 8C16 5.79086 14.2091 4 12 4Z" />
    </symbol>

    <symbol viewBox="0 0 24 24" id="header-search">
        <path fill-rule="evenodd" clip-rule="evenodd" d="M11 2C15.9706 2 20 6.02944 20 11C20 13.1248 19.2637 15.0776 18.0323 16.6172L21.7071 20.2929C22.0976 20.6834 22.0976 21.3166 21.7071 21.7071C21.3466 22.0676 20.7794 22.0953 20.3871 21.7903L20.2929 21.7071L16.6172 18.0323C15.0776 19.2637 13.1248 20 11 20C6.02944 20 2 15.9706 2 11C2 6.02944 6.02944 2 11 2ZM11 4C7.13401 4 4 7.13401 4 11C4 14.866 7.13401 18 11 18C14.866 18 18 14.866 18 11C18 7.13401 14.866 4 11 4Z" />
    </symbol>

    <symbol viewBox="0 0 15 9" id="main-header-btn">
        <path d="M14.3889 4.88891C14.6037 4.67412 14.6037 4.32588 14.3889 4.11109L10.8887 0.610913C10.6739 0.396124 10.3257 0.396124 10.1109 0.610913C9.89612 0.825701 9.89612 1.17394 10.1109 1.38873L13.2222 4.5L10.1109 7.61127C9.89612 7.82606 9.89612 8.1743 10.1109 8.38909C10.3257 8.60388 10.6739 8.60388 10.8887 8.38909L14.3889 4.88891ZM0 5.05L14 5.05V3.95L0 3.95L0 5.05Z" />
    </symbol>

    <symbol viewBox="0 0 15 8" id="main-faq-arrow">
        <path d="M1 1L7.5 7L14 0.999998" stroke-width="1.4" />
    </symbol>

    <symbol viewBox="0 0 36 36" id="window-close">
        <path d="M26.6748 8.8916L8.89176 26.6746" stroke-width="2" stroke-linecap="round" stroke-linejoin="round" />
        <path d="M8.8916 8.8916L26.6746 26.6746" stroke-width="2" stroke-linecap="round" stroke-linejoin="round" />
    </symbol>

    <symbol viewBox="0 0 30 30" id="window-info-arrow">
        <path d="M7.9289 9.69678L6.16113 11.4645L14.9999 20.3034L23.8388 11.4646L22.071 9.69681L15 16.7679L7.9289 9.69678Z" />
    </symbol>

    <symbol viewBox="0 0 16 18" id="window-info-presentation">
        <path d="M3.55556 14.4H12.4444V12.6H3.55556V14.4Z" />
        <path d="M12.4444 10.8H3.55556V9H12.4444V10.8Z" />
        <path d="M3.55556 7.2H7.11111V5.4H3.55556V7.2Z" />
        <path fill-rule="evenodd" clip-rule="evenodd" d="M2.66667 0C1.19391 0 0 1.20883 0 2.7V15.3C0 16.7912 1.19391 18 2.66667 18H13.3333C14.8061 18 16 16.7912 16 15.3V6.3C16 2.82061 13.2142 0 9.77778 0H2.66667ZM2.66667 1.8H8.88889V6.3H14.2222V15.3C14.2222 15.7971 13.8243 16.2 13.3333 16.2H2.66667C2.17575 16.2 1.77778 15.7971 1.77778 15.3V2.7C1.77778 2.20294 2.17575 1.8 2.66667 1.8ZM10.6667 1.89002C12.099 2.18439 13.2811 3.17615 13.8524 4.5H10.6667V1.89002Z" />
    </symbol>

    <symbol viewBox="0 0 24 24" id="window-info-icon">
        <path d="M12 22C17.5228 22 22 17.5228 22 12C22 6.47715 17.5228 2 12 2C6.47715 2 2 6.47715 2 12C2 17.5228 6.47715 22 12 22Z" stroke-width="2" stroke-linecap="round" stroke-linejoin="round" />
        <path d="M12 8V12" stroke-width="2" stroke-linecap="round" stroke-linejoin="round" />
        <path d="M12 16H12.01" stroke-width="2" stroke-linecap="round" stroke-linejoin="round" />
    </symbol>

</svg>